<?xml version="1.0" standalone="no"?>
<!DOCTYPE svg PUBLIC "-//W3C//DTD SVG 20010904//EN"
 "http://www.w3.org/TR/2001/REC-SVG-20010904/DTD/svg10.dtd">
<svg version="1.0" xmlns="http://www.w3.org/2000/svg"
 width="64.000000pt" height="64.000000pt" viewBox="0 0 64.000000 64.000000"
 preserveAspectRatio="xMidYMid meet">

<g transform="translate(0.000000,64.000000) scale(0.100000,-0.100000)"
fill="#000000" stroke="none">
<path d="M124 579 c-18 -20 -19 -39 -19 -269 0 -195 3 -250 14 -263 12 -15 39
-17 210 -17 140 0 200 3 209 12 8 8 12 67 12 201 l0 189 -82 84 -82 84 -121 0
c-111 0 -124 -2 -141 -21z m236 -67 c0 -69 16 -86 87 -92 l58 -5 3 -153 c1
-94 -2 -160 -8 -172 -10 -19 -21 -20 -165 -20 -126 0 -156 3 -169 16 -14 13
-16 48 -16 229 0 256 -6 245 127 245 l83 0 0 -48z"/>
<path d="M193 365 c-11 -30 12 -36 138 -33 116 3 124 4 124 23 0 19 -8 20
-128 23 -109 2 -128 0 -134 -13z"/>
<path d="M197 284 c-4 -4 -7 -16 -7 -26 0 -16 10 -18 111 -18 109 0 110 0 107
23 -3 21 -8 22 -104 25 -55 1 -103 0 -107 -4z"/>
<path d="M194 186 c-12 -31 7 -36 137 -36 129 0 130 0 127 23 -3 21 -7 22
-131 25 -105 2 -128 0 -133 -12z"/>
</g>
</svg>
